# xmcd
#
# Track frame offsets: 
#        150
#        29000
#        63490
#        85355
#        110880
#        128368
#        188090
#        236380
#        264165
#
# Disc length: 3976 seconds
#
# Revision: 4
# Processed by: cddbd v1.5.1PL0 Copyright (c) Steve Scherf et al.
# Submitted via: ExactAudioCopy v0.90b4
#
DISCID=740f8609
DTITLE=Beethoven, Haydn, Rossini - Symphonie Nr.4, Symphonie Nr.49, Ou
DTITLE=verture von LEchelle de soie
DYEAR=1900
DGENRE=Klassik
TTITLE0=Gioacchino Rossini - Overture >>La Scala di Seta<< 1812
TTITLE1=Joseph Haydn: Symphony no 49 in F Minor, Bob. I-49 >>La Passio
TTITLE1=n - Adagio
TTITLE2=Joseph Haydn: Symphony no 49 in F Minor, Bob. I-49 >>La Passio
TTITLE2=n - Allegro di molto
TTITLE3=Joseph Haydn: Symphony no 49 in F Minor, Bob. I-49 >>La Passio
TTITLE3=n - Menuetto-Trio
TTITLE4=Joseph Haydn: Symphony no 49 in F Minor, Bob. I-49 >>La Passio
TTITLE4=n - Finale (Presto)
TTITLE5=Ludvig van Beethoven: Symphony no 4 in B flat Major - Adagio-A
TTITLE5=llegro vivace
TTITLE6=Ludvig van Beethoven: Symphony no 4 in B flat Major - Adagio
TTITLE7=Ludvig van Beethoven: Symphony no 4 in B flat Major - Menuetto
TTITLE7=:Allegro Vivace :Trio-un poco meno allegro
TTITLE8=Ludvig van Beethoven: Symphony no 4 in B flat Major - Allegro 
TTITLE8=ma non troppo
EXTD=Orchestra Sinfonica Haydn di Bolzano e Trento.  Conductor: Alun F
EXTD=rnacis
EXTT0=
EXTT1=
EXTT2=
EXTT3=
EXTT4=
EXTT5=
EXTT6=
EXTT7=
EXTT8=
PLAYORDER=
